<?xml version="1.0" standalone="no"?>
 <!DOCTYPE svg PUBLIC "-//W3C//DTD SVG 1.1//EN" 
 "http://www.w3.org/Graphics/SVG/1.1/DTD/svg11.dtd"> 
<svg xmlns="http://www.w3.org/2000/svg" version="1.1" 
    width="29.7002cm" height="21.0007cm" viewBox="0 0 116930 82680 ">
<title>SVG Picture created as Raspberry_Pi_2m_TX_2-F.SilkS.svg date 2017/02/03 16:58:20 </title>
  <desc>Picture generated by PCBNEW </desc>
<g style="fill:#000000; fill-opacity:1;stroke:#000000; stroke-opacity:1;
stroke-linecap:round; stroke-linejoin:round; "
 transform="translate(0 0) scale(1 1)">
</g>
<g style="fill:#000000; fill-opacity:0.0; 
stroke:#000000; stroke-width:-0.000393701; stroke-opacity:1; 
stroke-linecap:round; stroke-linejoin:round;">
</g>
<g style="fill:#000000; fill-opacity:0.0; 
stroke:#000000; stroke-width:39.3701; stroke-opacity:1; 
stroke-linecap:round; stroke-linejoin:round;">
</g>
<g style="fill:#000000; fill-opacity:0.0; 
stroke:#000000; stroke-width:59.0551; stroke-opacity:1; 
stroke-linecap:round; stroke-linejoin:round;">
<rect x="69685.9" y="65357.2" width="42519.7" height="12598.4" rx="0" />
</g>
<g style="fill:#000000; fill-opacity:0.0; 
stroke:#000000; stroke-width:39.3701; stroke-opacity:1; 
stroke-linecap:round; stroke-linejoin:round;">
</g>
<g style="fill:#000000; fill-opacity:0.0; 
stroke:#000000; stroke-width:59.0551; stroke-opacity:1; 
stroke-linecap:round; stroke-linejoin:round;">
<rect x="3937.01" y="3937.01" width="109056" height="74806" rx="0" />
</g>
<g style="fill:#000000; fill-opacity:0.0; 
stroke:#000000; stroke-width:39.3701; stroke-opacity:1; 
stroke-linecap:round; stroke-linejoin:round;">
</g>
<g style="fill:#000000; fill-opacity:0.0; 
stroke:#000000; stroke-width:59.0551; stroke-opacity:1; 
stroke-linecap:round; stroke-linejoin:round;">
<rect x="4724.41" y="4724.41" width="107481" height="73231.2" rx="0" />
</g>
<g style="fill:#000000; fill-opacity:0.0; 
stroke:#000000; stroke-width:39.3701; stroke-opacity:1; 
stroke-linecap:round; stroke-linejoin:round;">
</g>
<g style="fill:#000000; fill-opacity:0.0; 
stroke:#000000; stroke-width:59.0551; stroke-opacity:1; 
stroke-linecap:round; stroke-linejoin:round;">
<path d="M23622 4724
L23622 3937
" />
</g>
<g style="fill:#000000; fill-opacity:0.0; 
stroke:#000000; stroke-width:39.3701; stroke-opacity:1; 
stroke-linecap:round; stroke-linejoin:round;">
</g>
<g style="fill:#000000; fill-opacity:0.0; 
stroke:#000000; stroke-width:59.0551; stroke-opacity:1; 
stroke-linecap:round; stroke-linejoin:round;">
<path d="M43307 4724
L43307 3937
" />
</g>
<g style="fill:#000000; fill-opacity:0.0; 
stroke:#000000; stroke-width:39.3701; stroke-opacity:1; 
stroke-linecap:round; stroke-linejoin:round;">
</g>
<g style="fill:#000000; fill-opacity:0.0; 
stroke:#000000; stroke-width:59.0551; stroke-opacity:1; 
stroke-linecap:round; stroke-linejoin:round;">
<path d="M62992 4724
L62992 3937
" />
</g>
<g style="fill:#000000; fill-opacity:0.0; 
stroke:#000000; stroke-width:39.3701; stroke-opacity:1; 
stroke-linecap:round; stroke-linejoin:round;">
</g>
<g style="fill:#000000; fill-opacity:0.0; 
stroke:#000000; stroke-width:59.0551; stroke-opacity:1; 
stroke-linecap:round; stroke-linejoin:round;">
<path d="M82677 4724
L82677 3937
" />
</g>
<g style="fill:#000000; fill-opacity:0.0; 
stroke:#000000; stroke-width:39.3701; stroke-opacity:1; 
stroke-linecap:round; stroke-linejoin:round;">
</g>
<g style="fill:#000000; fill-opacity:0.0; 
stroke:#000000; stroke-width:59.0551; stroke-opacity:1; 
stroke-linecap:round; stroke-linejoin:round;">
<path d="M102362 4724
L102362 3937
" />
</g>
<g style="fill:#000000; fill-opacity:0.0; 
stroke:#000000; stroke-width:39.3701; stroke-opacity:1; 
stroke-linecap:round; stroke-linejoin:round;">
</g>
<g style="fill:#000000; fill-opacity:0.0; 
stroke:#000000; stroke-width:59.0551; stroke-opacity:1; 
stroke-linecap:round; stroke-linejoin:round;">
<path d="M14169 4562
L13877 4562
" />
<path d="M14023 4562
L14023 4050
L13974 4123
L13925 4172
L13877 4196
" />
</g>
<g style="fill:#000000; fill-opacity:0.0; 
stroke:#000000; stroke-width:39.3701; stroke-opacity:1; 
stroke-linecap:round; stroke-linejoin:round;">
</g>
<g style="fill:#000000; fill-opacity:0.0; 
stroke:#000000; stroke-width:59.0551; stroke-opacity:1; 
stroke-linecap:round; stroke-linejoin:round;">
<path d="M33562 4099
L33586 4074
L33635 4050
L33757 4050
L33805 4074
L33830 4099
L33854 4147
L33854 4196
L33830 4269
L33537 4562
L33854 4562
" />
</g>
<g style="fill:#000000; fill-opacity:0.0; 
stroke:#000000; stroke-width:39.3701; stroke-opacity:1; 
stroke-linecap:round; stroke-linejoin:round;">
</g>
<g style="fill:#000000; fill-opacity:0.0; 
stroke:#000000; stroke-width:59.0551; stroke-opacity:1; 
stroke-linecap:round; stroke-linejoin:round;">
<path d="M53222 4050
L53539 4050
L53368 4245
L53442 4245
L53490 4269
L53515 4294
L53539 4342
L53539 4464
L53515 4513
L53490 4537
L53442 4562
L53295 4562
L53247 4537
L53222 4513
" />
</g>
<g style="fill:#000000; fill-opacity:0.0; 
stroke:#000000; stroke-width:39.3701; stroke-opacity:1; 
stroke-linecap:round; stroke-linejoin:round;">
</g>
<g style="fill:#000000; fill-opacity:0.0; 
stroke:#000000; stroke-width:59.0551; stroke-opacity:1; 
stroke-linecap:round; stroke-linejoin:round;">
<path d="M73175 4221
L73175 4562
" />
<path d="M73053 4026
L72932 4391
L73248 4391
" />
</g>
<g style="fill:#000000; fill-opacity:0.0; 
stroke:#000000; stroke-width:39.3701; stroke-opacity:1; 
stroke-linecap:round; stroke-linejoin:round;">
</g>
<g style="fill:#000000; fill-opacity:0.0; 
stroke:#000000; stroke-width:59.0551; stroke-opacity:1; 
stroke-linecap:round; stroke-linejoin:round;">
<path d="M92885 4050
L92641 4050
L92617 4294
L92641 4269
L92690 4245
L92812 4245
L92860 4269
L92885 4294
L92909 4342
L92909 4464
L92885 4513
L92860 4537
L92812 4562
L92690 4562
L92641 4537
L92617 4513
" />
</g>
<g style="fill:#000000; fill-opacity:0.0; 
stroke:#000000; stroke-width:39.3701; stroke-opacity:1; 
stroke-linecap:round; stroke-linejoin:round;">
</g>
<g style="fill:#000000; fill-opacity:0.0; 
stroke:#000000; stroke-width:59.0551; stroke-opacity:1; 
stroke-linecap:round; stroke-linejoin:round;">
<path d="M112545 4050
L112448 4050
L112399 4074
L112375 4099
L112326 4172
L112302 4269
L112302 4464
L112326 4513
L112350 4537
L112399 4562
L112497 4562
L112545 4537
L112570 4513
L112594 4464
L112594 4342
L112570 4294
L112545 4269
L112497 4245
L112399 4245
L112350 4269
L112326 4294
L112302 4342
" />
</g>
<g style="fill:#000000; fill-opacity:0.0; 
stroke:#000000; stroke-width:39.3701; stroke-opacity:1; 
stroke-linecap:round; stroke-linejoin:round;">
</g>
<g style="fill:#000000; fill-opacity:0.0; 
stroke:#000000; stroke-width:59.0551; stroke-opacity:1; 
stroke-linecap:round; stroke-linejoin:round;">
<path d="M23622 77955
L23622 78742
" />
</g>
<g style="fill:#000000; fill-opacity:0.0; 
stroke:#000000; stroke-width:39.3701; stroke-opacity:1; 
stroke-linecap:round; stroke-linejoin:round;">
</g>
<g style="fill:#000000; fill-opacity:0.0; 
stroke:#000000; stroke-width:59.0551; stroke-opacity:1; 
stroke-linecap:round; stroke-linejoin:round;">
<path d="M43307 77955
L43307 78742
" />
</g>
<g style="fill:#000000; fill-opacity:0.0; 
stroke:#000000; stroke-width:39.3701; stroke-opacity:1; 
stroke-linecap:round; stroke-linejoin:round;">
</g>
<g style="fill:#000000; fill-opacity:0.0; 
stroke:#000000; stroke-width:59.0551; stroke-opacity:1; 
stroke-linecap:round; stroke-linejoin:round;">
<path d="M62992 77955
L62992 78742
" />
</g>
<g style="fill:#000000; fill-opacity:0.0; 
stroke:#000000; stroke-width:39.3701; stroke-opacity:1; 
stroke-linecap:round; stroke-linejoin:round;">
</g>
<g style="fill:#000000; fill-opacity:0.0; 
stroke:#000000; stroke-width:59.0551; stroke-opacity:1; 
stroke-linecap:round; stroke-linejoin:round;">
<path d="M82677 77955
L82677 78742
" />
</g>
<g style="fill:#000000; fill-opacity:0.0; 
stroke:#000000; stroke-width:39.3701; stroke-opacity:1; 
stroke-linecap:round; stroke-linejoin:round;">
</g>
<g style="fill:#000000; fill-opacity:0.0; 
stroke:#000000; stroke-width:59.0551; stroke-opacity:1; 
stroke-linecap:round; stroke-linejoin:round;">
<path d="M102362 77955
L102362 78742
" />
</g>
<g style="fill:#000000; fill-opacity:0.0; 
stroke:#000000; stroke-width:39.3701; stroke-opacity:1; 
stroke-linecap:round; stroke-linejoin:round;">
</g>
<g style="fill:#000000; fill-opacity:0.0; 
stroke:#000000; stroke-width:59.0551; stroke-opacity:1; 
stroke-linecap:round; stroke-linejoin:round;">
<path d="M14169 78580
L13877 78580
" />
<path d="M14023 78580
L14023 78069
L13974 78142
L13925 78190
L13877 78215
" />
</g>
<g style="fill:#000000; fill-opacity:0.0; 
stroke:#000000; stroke-width:39.3701; stroke-opacity:1; 
stroke-linecap:round; stroke-linejoin:round;">
</g>
<g style="fill:#000000; fill-opacity:0.0; 
stroke:#000000; stroke-width:59.0551; stroke-opacity:1; 
stroke-linecap:round; stroke-linejoin:round;">
<path d="M33562 78117
L33586 78093
L33635 78069
L33757 78069
L33805 78093
L33830 78117
L33854 78166
L33854 78215
L33830 78288
L33537 78580
L33854 78580
" />
</g>
<g style="fill:#000000; fill-opacity:0.0; 
stroke:#000000; stroke-width:39.3701; stroke-opacity:1; 
stroke-linecap:round; stroke-linejoin:round;">
</g>
<g style="fill:#000000; fill-opacity:0.0; 
stroke:#000000; stroke-width:59.0551; stroke-opacity:1; 
stroke-linecap:round; stroke-linejoin:round;">
<path d="M53222 78069
L53539 78069
L53368 78263
L53442 78263
L53490 78288
L53515 78312
L53539 78361
L53539 78483
L53515 78532
L53490 78556
L53442 78580
L53295 78580
L53247 78556
L53222 78532
" />
</g>
<g style="fill:#000000; fill-opacity:0.0; 
stroke:#000000; stroke-width:39.3701; stroke-opacity:1; 
stroke-linecap:round; stroke-linejoin:round;">
</g>
<g style="fill:#000000; fill-opacity:0.0; 
stroke:#000000; stroke-width:59.0551; stroke-opacity:1; 
stroke-linecap:round; stroke-linejoin:round;">
<path d="M73175 78239
L73175 78580
" />
<path d="M73053 78044
L72932 78410
L73248 78410
" />
</g>
<g style="fill:#000000; fill-opacity:0.0; 
stroke:#000000; stroke-width:39.3701; stroke-opacity:1; 
stroke-linecap:round; stroke-linejoin:round;">
</g>
<g style="fill:#000000; fill-opacity:0.0; 
stroke:#000000; stroke-width:59.0551; stroke-opacity:1; 
stroke-linecap:round; stroke-linejoin:round;">
<path d="M92885 78069
L92641 78069
L92617 78312
L92641 78288
L92690 78263
L92812 78263
L92860 78288
L92885 78312
L92909 78361
L92909 78483
L92885 78532
L92860 78556
L92812 78580
L92690 78580
L92641 78556
L92617 78532
" />
</g>
<g style="fill:#000000; fill-opacity:0.0; 
stroke:#000000; stroke-width:39.3701; stroke-opacity:1; 
stroke-linecap:round; stroke-linejoin:round;">
</g>
<g style="fill:#000000; fill-opacity:0.0; 
stroke:#000000; stroke-width:59.0551; stroke-opacity:1; 
stroke-linecap:round; stroke-linejoin:round;">
<path d="M112545 78069
L112448 78069
L112399 78093
L112375 78117
L112326 78190
L112302 78288
L112302 78483
L112326 78532
L112350 78556
L112399 78580
L112497 78580
L112545 78556
L112570 78532
L112594 78483
L112594 78361
L112570 78312
L112545 78288
L112497 78263
L112399 78263
L112350 78288
L112326 78312
L112302 78361
" />
</g>
<g style="fill:#000000; fill-opacity:0.0; 
stroke:#000000; stroke-width:39.3701; stroke-opacity:1; 
stroke-linecap:round; stroke-linejoin:round;">
</g>
<g style="fill:#000000; fill-opacity:0.0; 
stroke:#000000; stroke-width:59.0551; stroke-opacity:1; 
stroke-linecap:round; stroke-linejoin:round;">
<path d="M3937 23622
L4724 23622
" />
</g>
<g style="fill:#000000; fill-opacity:0.0; 
stroke:#000000; stroke-width:39.3701; stroke-opacity:1; 
stroke-linecap:round; stroke-linejoin:round;">
</g>
<g style="fill:#000000; fill-opacity:0.0; 
stroke:#000000; stroke-width:59.0551; stroke-opacity:1; 
stroke-linecap:round; stroke-linejoin:round;">
<path d="M3937 43307
L4724 43307
" />
</g>
<g style="fill:#000000; fill-opacity:0.0; 
stroke:#000000; stroke-width:39.3701; stroke-opacity:1; 
stroke-linecap:round; stroke-linejoin:round;">
</g>
<g style="fill:#000000; fill-opacity:0.0; 
stroke:#000000; stroke-width:59.0551; stroke-opacity:1; 
stroke-linecap:round; stroke-linejoin:round;">
<path d="M3937 62992
L4724 62992
" />
</g>
<g style="fill:#000000; fill-opacity:0.0; 
stroke:#000000; stroke-width:39.3701; stroke-opacity:1; 
stroke-linecap:round; stroke-linejoin:round;">
</g>
<g style="fill:#000000; fill-opacity:0.0; 
stroke:#000000; stroke-width:59.0551; stroke-opacity:1; 
stroke-linecap:round; stroke-linejoin:round;">
<path d="M4208 13864
L4452 13864
" />
<path d="M4160 14011
L4330 13499
L4501 14011
" />
</g>
<g style="fill:#000000; fill-opacity:0.0; 
stroke:#000000; stroke-width:39.3701; stroke-opacity:1; 
stroke-linecap:round; stroke-linejoin:round;">
</g>
<g style="fill:#000000; fill-opacity:0.0; 
stroke:#000000; stroke-width:59.0551; stroke-opacity:1; 
stroke-linecap:round; stroke-linejoin:round;">
<path d="M4367 33428
L4440 33452
L4464 33476
L4489 33525
L4489 33598
L4464 33647
L4440 33671
L4391 33696
L4196 33696
L4196 33184
L4367 33184
L4416 33208
L4440 33233
L4464 33281
L4464 33330
L4440 33379
L4416 33403
L4367 33428
L4196 33428
" />
</g>
<g style="fill:#000000; fill-opacity:0.0; 
stroke:#000000; stroke-width:39.3701; stroke-opacity:1; 
stroke-linecap:round; stroke-linejoin:round;">
</g>
<g style="fill:#000000; fill-opacity:0.0; 
stroke:#000000; stroke-width:59.0551; stroke-opacity:1; 
stroke-linecap:round; stroke-linejoin:round;">
<path d="M4489 53332
L4464 53356
L4391 53381
L4342 53381
L4269 53356
L4221 53308
L4196 53259
L4172 53161
L4172 53088
L4196 52991
L4221 52942
L4269 52893
L4342 52869
L4391 52869
L4464 52893
L4489 52918
" />
</g>
<g style="fill:#000000; fill-opacity:0.0; 
stroke:#000000; stroke-width:39.3701; stroke-opacity:1; 
stroke-linecap:round; stroke-linejoin:round;">
</g>
<g style="fill:#000000; fill-opacity:0.0; 
stroke:#000000; stroke-width:59.0551; stroke-opacity:1; 
stroke-linecap:round; stroke-linejoin:round;">
<path d="M4196 73066
L4196 72554
L4318 72554
L4391 72578
L4440 72627
L4464 72676
L4489 72773
L4489 72846
L4464 72944
L4440 72993
L4391 73041
L4318 73066
L4196 73066
" />
</g>
<g style="fill:#000000; fill-opacity:0.0; 
stroke:#000000; stroke-width:39.3701; stroke-opacity:1; 
stroke-linecap:round; stroke-linejoin:round;">
</g>
<g style="fill:#000000; fill-opacity:0.0; 
stroke:#000000; stroke-width:59.0551; stroke-opacity:1; 
stroke-linecap:round; stroke-linejoin:round;">
<path d="M112992 23622
L112205 23622
" />
</g>
<g style="fill:#000000; fill-opacity:0.0; 
stroke:#000000; stroke-width:39.3701; stroke-opacity:1; 
stroke-linecap:round; stroke-linejoin:round;">
</g>
<g style="fill:#000000; fill-opacity:0.0; 
stroke:#000000; stroke-width:59.0551; stroke-opacity:1; 
stroke-linecap:round; stroke-linejoin:round;">
<path d="M112992 43307
L112205 43307
" />
</g>
<g style="fill:#000000; fill-opacity:0.0; 
stroke:#000000; stroke-width:39.3701; stroke-opacity:1; 
stroke-linecap:round; stroke-linejoin:round;">
</g>
<g style="fill:#000000; fill-opacity:0.0; 
stroke:#000000; stroke-width:59.0551; stroke-opacity:1; 
stroke-linecap:round; stroke-linejoin:round;">
<path d="M112992 62992
L112205 62992
" />
</g>
<g style="fill:#000000; fill-opacity:0.0; 
stroke:#000000; stroke-width:39.3701; stroke-opacity:1; 
stroke-linecap:round; stroke-linejoin:round;">
</g>
<g style="fill:#000000; fill-opacity:0.0; 
stroke:#000000; stroke-width:59.0551; stroke-opacity:1; 
stroke-linecap:round; stroke-linejoin:round;">
<path d="M112477 13864
L112721 13864
" />
<path d="M112428 14011
L112599 13499
L112769 14011
" />
</g>
<g style="fill:#000000; fill-opacity:0.0; 
stroke:#000000; stroke-width:39.3701; stroke-opacity:1; 
stroke-linecap:round; stroke-linejoin:round;">
</g>
<g style="fill:#000000; fill-opacity:0.0; 
stroke:#000000; stroke-width:59.0551; stroke-opacity:1; 
stroke-linecap:round; stroke-linejoin:round;">
<path d="M112635 33428
L112708 33452
L112733 33476
L112757 33525
L112757 33598
L112733 33647
L112708 33671
L112660 33696
L112465 33696
L112465 33184
L112635 33184
L112684 33208
L112708 33233
L112733 33281
L112733 33330
L112708 33379
L112684 33403
L112635 33428
L112465 33428
" />
</g>
<g style="fill:#000000; fill-opacity:0.0; 
stroke:#000000; stroke-width:39.3701; stroke-opacity:1; 
stroke-linecap:round; stroke-linejoin:round;">
</g>
<g style="fill:#000000; fill-opacity:0.0; 
stroke:#000000; stroke-width:59.0551; stroke-opacity:1; 
stroke-linecap:round; stroke-linejoin:round;">
<path d="M112757 53332
L112733 53356
L112660 53381
L112611 53381
L112538 53356
L112489 53308
L112465 53259
L112440 53161
L112440 53088
L112465 52991
L112489 52942
L112538 52893
L112611 52869
L112660 52869
L112733 52893
L112757 52918
" />
</g>
<g style="fill:#000000; fill-opacity:0.0; 
stroke:#000000; stroke-width:39.3701; stroke-opacity:1; 
stroke-linecap:round; stroke-linejoin:round;">
</g>
<g style="fill:#000000; fill-opacity:0.0; 
stroke:#000000; stroke-width:59.0551; stroke-opacity:1; 
stroke-linecap:round; stroke-linejoin:round;">
<path d="M112465 73066
L112465 72554
L112587 72554
L112660 72578
L112708 72627
L112733 72676
L112757 72773
L112757 72846
L112733 72944
L112708 72993
L112660 73041
L112587 73066
L112465 73066
" />
</g>
<g style="fill:#000000; fill-opacity:0.0; 
stroke:#000000; stroke-width:39.3701; stroke-opacity:1; 
stroke-linecap:round; stroke-linejoin:round;">
</g>
<g style="fill:#000000; fill-opacity:0.0; 
stroke:#000000; stroke-width:59.0551; stroke-opacity:1; 
stroke-linecap:round; stroke-linejoin:round;">
<path d="M78881 76293
L78881 75703
L79022 75703
L79106 75731
L79162 75787
L79190 75843
L79219 75956
L79219 76040
L79190 76153
L79162 76209
L79106 76265
L79022 76293
L78881 76293
" />
<path d="M79725 76293
L79725 75984
L79697 75928
L79640 75899
L79528 75899
L79472 75928
" />
<path d="M79725 76265
L79669 76293
L79528 76293
L79472 76265
L79444 76209
L79444 76153
L79472 76096
L79528 76068
L79669 76068
L79725 76040
" />
<path d="M79922 75899
L80147 75899
" />
<path d="M80006 75703
L80006 76209
L80034 76265
L80090 76293
L80147 76293
" />
<path d="M80568 76265
L80512 76293
L80400 76293
L80343 76265
L80315 76209
L80315 75984
L80343 75928
L80400 75899
L80512 75899
L80568 75928
L80597 75984
L80597 76040
L80315 76096
" />
<path d="M80850 76237
L80878 76265
L80850 76293
L80822 76265
L80850 76237
L80850 76293
" />
<path d="M80850 75928
L80878 75956
L80850 75984
L80822 75956
L80850 75928
L80850 75984
" />
<path d="M81553 75759
L81581 75731
L81637 75703
L81778 75703
L81834 75731
L81862 75759
L81890 75815
L81890 75871
L81862 75956
L81525 76293
L81890 76293
" />
<path d="M82256 75703
L82312 75703
L82368 75731
L82396 75759
L82424 75815
L82453 75928
L82453 76068
L82424 76181
L82396 76237
L82368 76265
L82312 76293
L82256 76293
L82199 76265
L82171 76237
L82143 76181
L82115 76068
L82115 75928
L82143 75815
L82171 75759
L82199 75731
L82256 75703
" />
<path d="M83015 76293
L82678 76293
" />
<path d="M82846 76293
L82846 75703
L82790 75787
L82734 75843
L82678 75871
" />
<path d="M83212 75703
L83606 75703
L83352 76293
" />
<path d="M83831 76068
L84280 76068
" />
<path d="M84674 75703
L84730 75703
L84787 75731
L84815 75759
L84843 75815
L84871 75928
L84871 76068
L84843 76181
L84815 76237
L84787 76265
L84730 76293
L84674 76293
L84618 76265
L84590 76237
L84562 76181
L84534 76068
L84534 75928
L84562 75815
L84590 75759
L84618 75731
L84674 75703
" />
<path d="M85433 76293
L85096 76293
" />
<path d="M85265 76293
L85265 75703
L85208 75787
L85152 75843
L85096 75871
" />
<path d="M85687 76068
L86136 76068
" />
<path d="M86727 76293
L86390 76293
" />
<path d="M86558 76293
L86558 75703
L86502 75787
L86446 75843
L86390 75871
" />
<path d="M87233 75703
L87121 75703
L87064 75731
L87036 75759
L86980 75843
L86952 75956
L86952 76181
L86980 76237
L87008 76265
L87064 76293
L87177 76293
L87233 76265
L87261 76237
L87289 76181
L87289 76040
L87261 75984
L87233 75956
L87177 75928
L87064 75928
L87008 75956
L86980 75984
L86952 76040
" />
</g>
<g style="fill:#000000; fill-opacity:0.0; 
stroke:#000000; stroke-width:39.3701; stroke-opacity:1; 
stroke-linecap:round; stroke-linejoin:round;">
</g>
<g style="fill:#000000; fill-opacity:0.0; 
stroke:#000000; stroke-width:59.0551; stroke-opacity:1; 
stroke-linecap:round; stroke-linejoin:round;">
<path d="M69685 76577
L112205 76577
" />
</g>
<g style="fill:#000000; fill-opacity:0.0; 
stroke:#000000; stroke-width:39.3701; stroke-opacity:1; 
stroke-linecap:round; stroke-linejoin:round;">
</g>
<g style="fill:#000000; fill-opacity:0.0; 
stroke:#000000; stroke-width:59.0551; stroke-opacity:1; 
stroke-linecap:round; stroke-linejoin:round;">
<path d="M70220 77395
L70220 76805
" />
<path d="M70557 77395
L70304 77058
" />
<path d="M70557 76805
L70220 77142
" />
<path d="M70810 77395
L70810 77002
" />
<path d="M70810 76805
L70782 76833
L70810 76861
L70838 76833
L70810 76805
L70810 76861
" />
<path d="M71429 77339
L71401 77367
L71316 77395
L71260 77395
L71176 77367
L71120 77311
L71091 77255
L71063 77142
L71063 77058
L71091 76946
L71120 76889
L71176 76833
L71260 76805
L71316 76805
L71401 76833
L71429 76861
" />
<path d="M71935 77395
L71935 77086
L71907 77030
L71851 77002
L71738 77002
L71682 77030
" />
<path d="M71935 77367
L71879 77395
L71738 77395
L71682 77367
L71654 77311
L71654 77255
L71682 77199
L71738 77171
L71879 77171
L71935 77142
" />
<path d="M72469 77395
L72469 76805
" />
<path d="M72469 77367
L72413 77395
L72301 77395
L72244 77367
L72216 77339
L72188 77283
L72188 77114
L72216 77058
L72244 77030
L72301 77002
L72413 77002
L72469 77030
" />
<path d="M73201 77086
L73397 77086
" />
<path d="M73482 77395
L73201 77395
L73201 76805
L73482 76805
" />
<path d="M73735 77339
L73763 77367
L73735 77395
L73707 77367
L73735 77339
L73735 77395
" />
<path d="M74016 77395
L74016 76805
L74157 76805
L74241 76833
L74297 76889
L74325 76946
L74354 77058
L74354 77142
L74325 77255
L74297 77311
L74241 77367
L74157 77395
L74016 77395
" />
<path d="M74607 77339
L74635 77367
L74607 77395
L74579 77367
L74607 77339
L74607 77395
" />
<path d="M74860 77227
L75141 77227
" />
<path d="M74804 77395
L75000 76805
L75197 77395
" />
<path d="M75394 77339
L75422 77367
L75394 77395
L75366 77367
L75394 77339
L75394 77395
" />
<path d="M76575 77002
L76575 77592
" />
<path d="M76575 77030
L76631 77002
L76744 77002
L76800 77030
L76828 77058
L76856 77114
L76856 77283
L76828 77339
L76800 77367
L76744 77395
L76631 77395
L76575 77367
" />
<path d="M77363 77367
L77306 77395
L77194 77395
L77138 77367
L77109 77339
L77081 77283
L77081 77114
L77109 77058
L77138 77030
L77194 77002
L77306 77002
L77363 77030
" />
<path d="M77616 77395
L77616 76805
" />
<path d="M77616 77030
L77672 77002
L77784 77002
L77841 77030
L77869 77058
L77897 77114
L77897 77283
L77869 77339
L77841 77367
L77784 77395
L77672 77395
L77616 77367
" />
<path d="M78150 77002
L78150 77395
" />
<path d="M78150 77058
L78178 77030
L78234 77002
L78319 77002
L78375 77030
L78403 77086
L78403 77395
" />
<path d="M78909 77367
L78853 77395
L78741 77395
L78684 77367
L78656 77311
L78656 77086
L78684 77030
L78741 77002
L78853 77002
L78909 77030
L78937 77086
L78937 77142
L78656 77199
" />
<path d="M79134 77002
L79247 77395
L79359 77114
L79472 77395
L79584 77002
" />
<path d="M80512 77002
L80512 77395
" />
<path d="M80372 76777
L80231 77199
L80597 77199
" />
<path d="M80822 77339
L80850 77367
L80822 77395
L80793 77367
L80822 77339
L80822 77395
" />
<path d="M81215 76805
L81271 76805
L81328 76833
L81356 76861
L81384 76917
L81412 77030
L81412 77171
L81384 77283
L81356 77339
L81328 77367
L81271 77395
L81215 77395
L81159 77367
L81131 77339
L81103 77283
L81075 77171
L81075 77030
L81103 76917
L81131 76861
L81159 76833
L81215 76805
" />
<path d="M81665 77339
L81693 77367
L81665 77395
L81637 77367
L81665 77339
L81665 77395
" />
<path d="M81918 76861
L81946 76833
L82003 76805
L82143 76805
L82199 76833
L82228 76861
L82256 76917
L82256 76974
L82228 77058
L81890 77395
L82256 77395
" />
<path d="M82509 77171
L82959 77171
" />
<path d="M82734 77395
L82734 76946
" />
<path d="M83493 77395
L83493 76805
" />
<path d="M83493 77367
L83437 77395
L83324 77395
L83268 77367
L83240 77339
L83212 77283
L83212 77114
L83240 77058
L83268 77030
L83324 77002
L83437 77002
L83493 77030
" />
<path d="M83690 77002
L83915 77002
" />
<path d="M83774 77395
L83774 76889
L83802 76833
L83859 76805
L83915 76805
" />
<path d="M84084 77367
L84140 77395
L84252 77395
L84309 77367
L84337 77311
L84337 77283
L84309 77227
L84252 77199
L84168 77199
L84112 77171
L84084 77114
L84084 77086
L84112 77030
L84168 77002
L84252 77002
L84309 77030
" />
<path d="M84843 77002
L84843 77480
L84815 77536
L84787 77564
L84730 77592
L84646 77592
L84590 77564
" />
<path d="M84843 77367
L84787 77395
L84674 77395
L84618 77367
L84590 77339
L84562 77283
L84562 77114
L84590 77058
L84618 77030
L84674 77002
L84787 77002
L84843 77030
" />
<path d="M85433 77395
L85096 77395
" />
<path d="M85265 77395
L85265 76805
L85208 76889
L85152 76946
L85096 76974
" />
<path d="M85687 77171
L86136 77171
" />
<path d="M86390 77367
L86446 77395
L86558 77395
L86615 77367
L86643 77311
L86643 77283
L86615 77227
L86558 77199
L86474 77199
L86418 77171
L86390 77114
L86390 77086
L86418 77030
L86474 77002
L86558 77002
L86615 77030
" />
<path d="M86811 77002
L87036 77002
" />
<path d="M86896 76805
L86896 77311
L86924 77367
L86980 77395
L87036 77395
" />
<path d="M87486 77395
L87486 77086
L87458 77030
L87402 77002
L87289 77002
L87233 77030
" />
<path d="M87486 77367
L87430 77395
L87289 77395
L87233 77367
L87205 77311
L87205 77255
L87233 77199
L87289 77171
L87430 77171
L87486 77142
" />
<path d="M87768 77395
L87768 76805
" />
<path d="M87768 77030
L87824 77002
L87936 77002
L87992 77030
L88021 77058
L88049 77114
L88049 77283
L88021 77339
L87992 77367
L87936 77395
L87824 77395
L87768 77367
" />
<path d="M88386 77395
L88330 77367
L88302 77311
L88302 76805
" />
<path d="M88836 77367
L88780 77395
L88667 77395
L88611 77367
L88583 77311
L88583 77086
L88611 77030
L88667 77002
L88780 77002
L88836 77030
L88864 77086
L88864 77142
L88583 77199
" />
</g>
<g style="fill:#000000; fill-opacity:0.0; 
stroke:#000000; stroke-width:39.3701; stroke-opacity:1; 
stroke-linecap:round; stroke-linejoin:round;">
</g>
<g style="fill:#000000; fill-opacity:0.0; 
stroke:#000000; stroke-width:59.0551; stroke-opacity:1; 
stroke-linecap:round; stroke-linejoin:round;">
<path d="M69685 75396
L112205 75396
" />
</g>
<g style="fill:#000000; fill-opacity:0.0; 
stroke:#000000; stroke-width:39.3701; stroke-opacity:1; 
stroke-linecap:round; stroke-linejoin:round;">
</g>
<g style="fill:#000000; fill-opacity:0.0; 
stroke:#000000; stroke-width:118.11; stroke-opacity:1; 
stroke-linecap:round; stroke-linejoin:round;">
<path d="M104022 76293
L103825 76012
" />
<path d="M103684 76293
L103684 75703
L103909 75703
L103965 75731
L103994 75759
L104022 75815
L104022 75899
L103994 75956
L103965 75984
L103909 76012
L103684 76012
" />
<path d="M104500 76265
L104444 76293
L104331 76293
L104275 76265
L104247 76209
L104247 75984
L104275 75928
L104331 75899
L104444 75899
L104500 75928
L104528 75984
L104528 76040
L104247 76096
" />
<path d="M104725 75899
L104865 76293
L105006 75899
" />
<path d="M105231 76237
L105259 76265
L105231 76293
L105203 76265
L105231 76237
L105231 76293
" />
<path d="M105231 75928
L105259 75956
L105231 75984
L105203 75956
L105231 75928
L105231 75984
" />
<path d="M106300 76293
L106103 76012
" />
<path d="M105962 76293
L105962 75703
L106187 75703
L106243 75731
L106271 75759
L106300 75815
L106300 75899
L106271 75956
L106243 75984
L106187 76012
L105962 76012
" />
<path d="M106778 76265
L106721 76293
L106609 76293
L106553 76265
L106525 76209
L106525 75984
L106553 75928
L106609 75899
L106721 75899
L106778 75928
L106806 75984
L106806 76040
L106525 76096
" />
<path d="M107003 75899
L107143 76293
L107284 75899
" />
<path d="M108268 76293
L107931 76293
" />
<path d="M108099 76293
L108099 75703
L108043 75787
L107987 75843
L107931 75871
" />
</g>
<g style="fill:#000000; fill-opacity:0.0; 
stroke:#000000; stroke-width:39.3701; stroke-opacity:1; 
stroke-linecap:round; stroke-linejoin:round;">
</g>
<g style="fill:#000000; fill-opacity:0.0; 
stroke:#000000; stroke-width:59.0551; stroke-opacity:1; 
stroke-linecap:round; stroke-linejoin:round;">
<path d="M70192 76265
L70276 76293
L70417 76293
L70473 76265
L70501 76237
L70529 76181
L70529 76124
L70501 76068
L70473 76040
L70417 76012
L70304 75984
L70248 75956
L70220 75928
L70192 75871
L70192 75815
L70220 75759
L70248 75731
L70304 75703
L70445 75703
L70529 75731
" />
<path d="M70782 76293
L70782 75899
" />
<path d="M70782 75703
L70754 75731
L70782 75759
L70810 75731
L70782 75703
L70782 75759
" />
<path d="M71007 75899
L71316 75899
L71007 76293
L71316 76293
" />
<path d="M71766 76265
L71710 76293
L71598 76293
L71541 76265
L71513 76209
L71513 75984
L71541 75928
L71598 75899
L71710 75899
L71766 75928
L71795 75984
L71795 76040
L71513 76096
" />
<path d="M72048 76237
L72076 76265
L72048 76293
L72019 76265
L72048 76237
L72048 76293
" />
<path d="M72048 75928
L72076 75956
L72048 75984
L72019 75956
L72048 75928
L72048 75984
" />
<path d="M72751 76124
L73032 76124
" />
<path d="M72694 76293
L72891 75703
L73088 76293
" />
<path d="M73538 75899
L73538 76293
" />
<path d="M73397 75674
L73257 76096
L73622 76096
" />
</g>
<g style="fill:#000000; fill-opacity:0.0; 
stroke:#000000; stroke-width:39.3701; stroke-opacity:1; 
stroke-linecap:round; stroke-linejoin:round;">
</g>
<g style="fill:#000000; fill-opacity:0.0; 
stroke:#000000; stroke-width:59.0551; stroke-opacity:1; 
stroke-linecap:round; stroke-linejoin:round;">
<path d="M103684 77395
L103684 76805
" />
<path d="M104219 77395
L104219 76805
" />
<path d="M104219 77367
L104162 77395
L104050 77395
L103994 77367
L103965 77339
L103937 77283
L103937 77114
L103965 77058
L103994 77030
L104050 77002
L104162 77002
L104219 77030
" />
<path d="M104500 77339
L104528 77367
L104500 77395
L104472 77367
L104500 77339
L104500 77395
" />
<path d="M104500 77030
L104528 77058
L104500 77086
L104472 77058
L104500 77030
L104500 77086
" />
<path d="M105540 77395
L105203 77395
" />
<path d="M105372 77395
L105372 76805
L105315 76889
L105259 76946
L105203 76974
" />
<path d="M106215 76777
L105709 77536
" />
<path d="M106721 77395
L106384 77395
" />
<path d="M106553 77395
L106553 76805
L106496 76889
L106440 76946
L106384 76974
" />
</g>
<g style="fill:#000000; fill-opacity:0.0; 
stroke:#000000; stroke-width:39.3701; stroke-opacity:1; 
stroke-linecap:round; stroke-linejoin:round;">
</g>
<g style="fill:#000000; fill-opacity:0.0; 
stroke:#000000; stroke-width:59.0551; stroke-opacity:1; 
stroke-linecap:round; stroke-linejoin:round;">
<path d="M69685 73821
L112205 73821
" />
</g>
<g style="fill:#000000; fill-opacity:0.0; 
stroke:#000000; stroke-width:39.3701; stroke-opacity:1; 
stroke-linecap:round; stroke-linejoin:round;">
</g>
<g style="fill:#000000; fill-opacity:0.0; 
stroke:#000000; stroke-width:157.48; stroke-opacity:1; 
stroke-linecap:round; stroke-linejoin:round;">
<path d="M70257 74099
L70707 74099
" />
<path d="M70384 74886
L70482 74099
" />
<path d="M70871 74886
L70937 74361
" />
<path d="M70970 74099
L70927 74136
L70960 74174
L71002 74136
L70970 74099
L70960 74174
" />
<path d="M71199 74361
L71499 74361
" />
<path d="M71345 74099
L71260 74774
L71288 74849
L71359 74886
L71434 74886
" />
<path d="M71809 74886
L71738 74849
L71710 74774
L71795 74099
" />
<path d="M72413 74849
L72334 74886
L72184 74886
L72113 74849
L72085 74774
L72123 74474
L72169 74399
L72249 74361
L72399 74361
L72469 74399
L72498 74474
L72488 74549
L72104 74624
" />
<path d="M72793 74811
L72826 74849
L72783 74886
L72751 74849
L72793 74811
L72783 74886
" />
<path d="M72844 74399
L72877 74436
L72835 74474
L72802 74436
L72844 74399
L72835 74474
" />
<path d="M74208 74886
L73993 74511
" />
<path d="M73758 74886
L73857 74099
L74157 74099
L74227 74136
L74260 74174
L74288 74249
L74274 74361
L74227 74436
L74185 74474
L74105 74511
L73805 74511
" />
<path d="M74883 74886
L74935 74474
L74907 74399
L74836 74361
L74686 74361
L74607 74399
" />
<path d="M74888 74849
L74808 74886
L74621 74886
L74550 74849
L74522 74774
L74532 74699
L74579 74624
L74658 74586
L74846 74586
L74925 74549
" />
<path d="M75225 74849
L75296 74886
L75446 74886
L75525 74849
L75572 74774
L75577 74736
L75549 74661
L75478 74624
L75366 74624
L75296 74586
L75268 74511
L75272 74474
L75319 74399
L75399 74361
L75511 74361
L75582 74399
" />
<path d="M75961 74361
L75863 75149
" />
<path d="M75956 74399
L76036 74361
L76186 74361
L76256 74399
L76289 74436
L76317 74511
L76289 74736
L76242 74811
L76200 74849
L76121 74886
L75971 74886
L75900 74849
" />
<path d="M76608 74886
L76706 74099
" />
<path d="M76669 74399
L76749 74361
L76899 74361
L76969 74399
L77002 74436
L77030 74511
L77002 74736
L76955 74811
L76913 74849
L76833 74886
L76683 74886
L76613 74849
" />
<path d="M77625 74849
L77545 74886
L77395 74886
L77325 74849
L77297 74774
L77334 74474
L77381 74399
L77461 74361
L77611 74361
L77681 74399
L77709 74474
L77700 74549
L77316 74624
" />
<path d="M77995 74886
L78061 74361
" />
<path d="M78042 74511
L78089 74436
L78131 74399
L78211 74361
L78286 74361
" />
<path d="M78483 74886
L78548 74361
" />
<path d="M78530 74511
L78576 74436
L78619 74399
L78698 74361
L78773 74361
" />
<path d="M78961 74361
L79083 74886
" />
<path d="M79336 74361
L79083 74886
L78984 75074
L78942 75111
L78862 75149
" />
<path d="M80170 74886
L80268 74099
L80568 74099
L80639 74136
L80672 74174
L80700 74249
L80686 74361
L80639 74436
L80597 74474
L80517 74511
L80217 74511
" />
<path d="M80957 74886
L81023 74361
" />
<path d="M81056 74099
L81014 74136
L81046 74174
L81089 74136
L81056 74099
L81046 74174
" />
<path d="M81918 74099
L82368 74099
" />
<path d="M82045 74886
L82143 74099
" />
<path d="M82556 74099
L82982 74886
" />
<path d="M83081 74099
L82457 74886
" />
<path d="M83934 74174
L83976 74136
L84055 74099
L84243 74099
L84313 74136
L84346 74174
L84374 74249
L84365 74324
L84313 74436
L83807 74886
L84295 74886
" />
<path d="M84632 74886
L84698 74361
" />
<path d="M84688 74436
L84730 74399
L84810 74361
L84923 74361
L84993 74399
L85021 74474
L84969 74886
" />
<path d="M85021 74474
L85068 74399
L85148 74361
L85260 74361
L85330 74399
L85358 74474
L85307 74886
" />
</g>
<g style="fill:#000000; fill-opacity:0.0; 
stroke:#000000; stroke-width:39.3701; stroke-opacity:1; 
stroke-linecap:round; stroke-linejoin:round;">
</g>
<g style="fill:#000000; fill-opacity:0.0; 
stroke:#000000; stroke-width:59.0551; stroke-opacity:1; 
stroke-linecap:round; stroke-linejoin:round;">
<path d="M70417 73070
L70220 73070
" />
<path d="M70220 73380
L70220 72789
L70501 72789
" />
<path d="M70726 73380
L70726 72986
" />
<path d="M70726 72789
L70698 72817
L70726 72845
L70754 72817
L70726 72789
L70726 72845
" />
<path d="M71091 73380
L71035 73352
L71007 73295
L71007 72789
" />
<path d="M71541 73352
L71485 73380
L71373 73380
L71316 73352
L71288 73295
L71288 73070
L71316 73014
L71373 72986
L71485 72986
L71541 73014
L71570 73070
L71570 73127
L71288 73183
" />
<path d="M71823 73323
L71851 73352
L71823 73380
L71795 73352
L71823 73323
L71823 73380
" />
<path d="M71823 73014
L71851 73042
L71823 73070
L71795 73042
L71823 73014
L71823 73070
" />
<path d="M72891 73380
L72694 73099
" />
<path d="M72554 73380
L72554 72789
L72779 72789
L72835 72817
L72863 72845
L72891 72902
L72891 72986
L72863 73042
L72835 73070
L72779 73099
L72554 73099
" />
<path d="M73397 73380
L73397 73070
L73369 73014
L73313 72986
L73201 72986
L73144 73014
" />
<path d="M73397 73352
L73341 73380
L73201 73380
L73144 73352
L73116 73295
L73116 73239
L73144 73183
L73201 73155
L73341 73155
L73397 73127
" />
<path d="M73651 73352
L73707 73380
L73819 73380
L73876 73352
L73904 73295
L73904 73267
L73876 73211
L73819 73183
L73735 73183
L73679 73155
L73651 73099
L73651 73070
L73679 73014
L73735 72986
L73819 72986
L73876 73014
" />
<path d="M74157 72986
L74157 73577
" />
<path d="M74157 73014
L74213 72986
L74325 72986
L74382 73014
L74410 73042
L74438 73099
L74438 73267
L74410 73323
L74382 73352
L74325 73380
L74213 73380
L74157 73352
" />
<path d="M74691 73380
L74691 72789
" />
<path d="M74691 73014
L74747 72986
L74860 72986
L74916 73014
L74944 73042
L74972 73099
L74972 73267
L74944 73323
L74916 73352
L74860 73380
L74747 73380
L74691 73352
" />
<path d="M75450 73352
L75394 73380
L75282 73380
L75225 73352
L75197 73295
L75197 73070
L75225 73014
L75282 72986
L75394 72986
L75450 73014
L75478 73070
L75478 73127
L75197 73183
" />
<path d="M75732 73380
L75732 72986
" />
<path d="M75732 73099
L75760 73042
L75788 73014
L75844 72986
L75900 72986
" />
<path d="M76097 73380
L76097 72986
" />
<path d="M76097 73099
L76125 73042
L76153 73014
L76210 72986
L76266 72986
" />
<path d="M76406 72986
L76547 73380
" />
<path d="M76688 72986
L76547 73380
L76491 73520
L76463 73548
L76406 73577
" />
<path d="M76772 73436
L77222 73436
" />
<path d="M77363 73380
L77363 72789
L77588 72789
L77644 72817
L77672 72845
L77700 72902
L77700 72986
L77672 73042
L77644 73070
L77588 73099
L77363 73099
" />
<path d="M77953 73380
L77953 72986
" />
<path d="M77953 72789
L77925 72817
L77953 72845
L77981 72817
L77953 72789
L77953 72845
" />
<path d="M78094 73436
L78544 73436
" />
<path d="M78656 72845
L78684 72817
L78741 72789
L78881 72789
L78937 72817
L78965 72845
L78994 72902
L78994 72958
L78965 73042
L78628 73380
L78994 73380
" />
<path d="M79247 73380
L79247 72986
" />
<path d="M79247 73042
L79275 73014
L79331 72986
L79415 72986
L79472 73014
L79500 73070
L79500 73380
" />
<path d="M79500 73070
L79528 73014
L79584 72986
L79669 72986
L79725 73014
L79753 73070
L79753 73380
" />
<path d="M79894 73436
L80343 73436
" />
<path d="M80400 72789
L80737 72789
" />
<path d="M80568 73380
L80568 72789
" />
<path d="M80878 72789
L81271 73380
" />
<path d="M81271 72789
L80878 73380
" />
<path d="M81356 73436
L81806 73436
" />
<path d="M81918 72845
L81946 72817
L82003 72789
L82143 72789
L82199 72817
L82228 72845
L82256 72902
L82256 72958
L82228 73042
L81890 73380
L82256 73380
" />
<path d="M82509 73323
L82537 73352
L82509 73380
L82481 73352
L82509 73323
L82509 73380
" />
<path d="M82790 73380
L82790 72789
" />
<path d="M82846 73155
L83015 73380
" />
<path d="M83015 72986
L82790 73211
" />
<path d="M83268 73380
L83268 72986
" />
<path d="M83268 72789
L83240 72817
L83268 72845
L83296 72817
L83268 72789
L83268 72845
" />
<path d="M83802 73352
L83746 73380
L83634 73380
L83577 73352
L83549 73323
L83521 73267
L83521 73099
L83549 73042
L83577 73014
L83634 72986
L83746 72986
L83802 73014
" />
<path d="M84309 73380
L84309 73070
L84280 73014
L84224 72986
L84112 72986
L84055 73014
" />
<path d="M84309 73352
L84252 73380
L84112 73380
L84055 73352
L84027 73295
L84027 73239
L84055 73183
L84112 73155
L84252 73155
L84309 73127
" />
<path d="M84843 73380
L84843 72789
" />
<path d="M84843 73352
L84787 73380
L84674 73380
L84618 73352
L84590 73323
L84562 73267
L84562 73099
L84590 73042
L84618 73014
L84674 72986
L84787 72986
L84843 73014
" />
<path d="M84983 73436
L85433 73436
" />
<path d="M85574 72986
L85574 73577
" />
<path d="M85574 73014
L85630 72986
L85743 72986
L85799 73014
L85827 73042
L85855 73099
L85855 73267
L85827 73323
L85799 73352
L85743 73380
L85630 73380
L85574 73352
" />
<path d="M86361 73352
L86305 73380
L86193 73380
L86136 73352
L86108 73323
L86080 73267
L86080 73099
L86108 73042
L86136 73014
L86193 72986
L86305 72986
L86361 73014
" />
<path d="M86615 73380
L86615 72789
" />
<path d="M86615 73014
L86671 72986
L86783 72986
L86840 73014
L86868 73042
L86896 73099
L86896 73267
L86868 73323
L86840 73352
L86783 73380
L86671 73380
L86615 73352
" />
</g>
<g style="fill:#000000; fill-opacity:0.0; 
stroke:#000000; stroke-width:39.3701; stroke-opacity:1; 
stroke-linecap:round; stroke-linejoin:round;">
</g>
<g style="fill:#000000; fill-opacity:0.0; 
stroke:#000000; stroke-width:59.0551; stroke-opacity:1; 
stroke-linecap:round; stroke-linejoin:round;">
<path d="M69685 71459
L112205 71459
" />
</g>
<g style="fill:#000000; fill-opacity:0.0; 
stroke:#000000; stroke-width:39.3701; stroke-opacity:1; 
stroke-linecap:round; stroke-linejoin:round;">
</g>
<g style="fill:#000000; fill-opacity:0.0; 
stroke:#000000; stroke-width:59.0551; stroke-opacity:1; 
stroke-linecap:round; stroke-linejoin:round;">
<path d="M70192 72289
L70276 72317
L70417 72317
L70473 72289
L70501 72260
L70529 72204
L70529 72148
L70501 72092
L70473 72064
L70417 72036
L70304 72007
L70248 71979
L70220 71951
L70192 71895
L70192 71839
L70220 71782
L70248 71754
L70304 71726
L70445 71726
L70529 71754
" />
<path d="M70782 72317
L70782 71726
" />
<path d="M71035 72317
L71035 72007
L71007 71951
L70951 71923
L70867 71923
L70810 71951
L70782 71979
" />
<path d="M71541 72289
L71485 72317
L71373 72317
L71316 72289
L71288 72232
L71288 72007
L71316 71951
L71373 71923
L71485 71923
L71541 71951
L71570 72007
L71570 72064
L71288 72120
" />
<path d="M72048 72289
L71991 72317
L71879 72317
L71823 72289
L71795 72232
L71795 72007
L71823 71951
L71879 71923
L71991 71923
L72048 71951
L72076 72007
L72076 72064
L71795 72120
" />
<path d="M72244 71923
L72469 71923
" />
<path d="M72329 71726
L72329 72232
L72357 72289
L72413 72317
L72469 72317
" />
<path d="M72666 72260
L72694 72289
L72666 72317
L72638 72289
L72666 72260
L72666 72317
" />
<path d="M72666 71951
L72694 71979
L72666 72007
L72638 71979
L72666 71951
L72666 72007
" />
</g>
<g style="fill:#000000; fill-opacity:0.0; 
stroke:#000000; stroke-width:39.3701; stroke-opacity:1; 
stroke-linecap:round; stroke-linejoin:round;">
</g>
<g style="fill:#000000; fill-opacity:0.0; 
stroke:#000000; stroke-width:118.11; stroke-opacity:1; 
stroke-linecap:round; stroke-linejoin:round;">
<path d="M70529 70573
L70473 70545
L70388 70545
L70304 70573
L70248 70629
L70220 70686
L70192 70798
L70192 70883
L70220 70995
L70248 71051
L70304 71108
L70388 71136
L70445 71136
L70529 71108
L70557 71079
L70557 70883
L70445 70883
" />
<path d="M70810 71136
L70810 70742
" />
<path d="M70810 70545
L70782 70573
L70810 70601
L70838 70573
L70810 70545
L70810 70601
" />
<path d="M71345 70742
L71345 71220
L71316 71276
L71288 71304
L71232 71332
L71148 71332
L71091 71304
" />
<path d="M71345 71108
L71288 71136
L71176 71136
L71120 71108
L71091 71079
L71063 71023
L71063 70854
L71091 70798
L71120 70770
L71176 70742
L71288 70742
L71345 70770
" />
<path d="M71879 71136
L71879 70826
L71851 70770
L71795 70742
L71682 70742
L71626 70770
" />
<path d="M71879 71108
L71823 71136
L71682 71136
L71626 71108
L71598 71051
L71598 70995
L71626 70939
L71682 70911
L71823 70911
L71879 70883
" />
<path d="M72526 70545
L72863 70545
" />
<path d="M72694 71136
L72694 70545
" />
<path d="M73285 71108
L73229 71136
L73116 71136
L73060 71108
L73032 71051
L73032 70826
L73060 70770
L73116 70742
L73229 70742
L73285 70770
L73313 70826
L73313 70883
L73032 70939
" />
<path d="M73819 71108
L73763 71136
L73651 71136
L73594 71108
L73566 71079
L73538 71023
L73538 70854
L73566 70798
L73594 70770
L73651 70742
L73763 70742
L73819 70770
" />
<path d="M74072 71136
L74072 70545
" />
<path d="M74325 71136
L74325 70826
L74297 70770
L74241 70742
L74157 70742
L74100 70770
L74072 70798
" />
<path d="M74607 70742
L74607 71136
" />
<path d="M74607 70798
L74635 70770
L74691 70742
L74775 70742
L74832 70770
L74860 70826
L74860 71136
" />
<path d="M75225 71136
L75169 71108
L75141 71079
L75113 71023
L75113 70854
L75141 70798
L75169 70770
L75225 70742
L75310 70742
L75366 70770
L75394 70798
L75422 70854
L75422 71023
L75394 71079
L75366 71108
L75310 71136
L75225 71136
" />
<path d="M75760 71136
L75703 71108
L75675 71051
L75675 70545
" />
<path d="M76069 71136
L76013 71108
L75985 71079
L75956 71023
L75956 70854
L75985 70798
L76013 70770
L76069 70742
L76153 70742
L76210 70770
L76238 70798
L76266 70854
L76266 71023
L76238 71079
L76210 71108
L76153 71136
L76069 71136
" />
<path d="M76772 70742
L76772 71220
L76744 71276
L76716 71304
L76660 71332
L76575 71332
L76519 71304
" />
<path d="M76772 71108
L76716 71136
L76603 71136
L76547 71108
L76519 71079
L76491 71023
L76491 70854
L76519 70798
L76547 70770
L76603 70742
L76716 70742
L76772 70770
" />
<path d="M76997 70742
L77138 71136
" />
<path d="M77278 70742
L77138 71136
L77081 71276
L77053 71304
L76997 71332
" />
</g>
<g style="fill:#000000; fill-opacity:0.0; 
stroke:#000000; stroke-width:39.3701; stroke-opacity:1; 
stroke-linecap:round; stroke-linejoin:round;">
</g>
<g style="fill:#000000; fill-opacity:0.0; 
stroke:#000000; stroke-width:59.0551; stroke-opacity:1; 
stroke-linecap:round; stroke-linejoin:round;">
<path d="M70192 69786
L70473 69786
" />
<path d="M70135 69955
L70332 69364
L70529 69955
" />
<path d="M70979 69561
L70979 69955
" />
<path d="M70726 69561
L70726 69870
L70754 69926
L70810 69955
L70895 69955
L70951 69926
L70979 69898
" />
<path d="M71176 69561
L71401 69561
" />
<path d="M71260 69364
L71260 69870
L71288 69926
L71345 69955
L71401 69955
" />
<path d="M71598 69955
L71598 69364
" />
<path d="M71851 69955
L71851 69645
L71823 69589
L71766 69561
L71682 69561
L71626 69589
L71598 69617
" />
<path d="M72357 69926
L72301 69955
L72188 69955
L72132 69926
L72104 69870
L72104 69645
L72132 69589
L72188 69561
L72301 69561
L72357 69589
L72385 69645
L72385 69701
L72104 69758
" />
<path d="M72638 69955
L72638 69561
" />
<path d="M72638 69673
L72666 69617
L72694 69589
L72751 69561
L72807 69561
" />
<path d="M73004 69898
L73032 69926
L73004 69955
L72976 69926
L73004 69898
L73004 69955
" />
<path d="M73004 69589
L73032 69617
L73004 69645
L72976 69617
L73004 69589
L73004 69645
" />
<path d="M73707 69786
L73988 69786
" />
<path d="M73651 69955
L73847 69364
L74044 69955
" />
<path d="M74241 69561
L74241 69955
" />
<path d="M74241 69617
L74269 69589
L74325 69561
L74410 69561
L74466 69589
L74494 69645
L74494 69955
" />
<path d="M74691 69561
L74916 69561
" />
<path d="M74775 69364
L74775 69870
L74804 69926
L74860 69955
L74916 69955
" />
<path d="M75197 69955
L75141 69926
L75113 69898
L75085 69842
L75085 69673
L75113 69617
L75141 69589
L75197 69561
L75282 69561
L75338 69589
L75366 69617
L75394 69673
L75394 69842
L75366 69898
L75338 69926
L75282 69955
L75197 69955
" />
<path d="M75647 69561
L75647 69955
" />
<path d="M75647 69617
L75675 69589
L75732 69561
L75816 69561
L75872 69589
L75900 69645
L75900 69955
" />
<path d="M76800 69364
L76800 69786
L76772 69870
L76716 69926
L76631 69955
L76575 69955
" />
<path d="M77334 69955
L77334 69645
L77306 69589
L77250 69561
L77138 69561
L77081 69589
" />
<path d="M77334 69926
L77278 69955
L77138 69955
L77081 69926
L77053 69870
L77053 69814
L77081 69758
L77138 69730
L77278 69730
L77334 69701
" />
<path d="M77616 69561
L77616 69955
" />
<path d="M77616 69617
L77644 69589
L77700 69561
L77784 69561
L77841 69589
L77869 69645
L77869 69955
" />
<path d="M78234 69955
L78178 69926
L78150 69898
L78122 69842
L78122 69673
L78150 69617
L78178 69589
L78234 69561
L78319 69561
L78375 69589
L78403 69617
L78431 69673
L78431 69842
L78403 69898
L78375 69926
L78319 69955
L78234 69955
" />
<path d="M78628 69561
L78769 69955
L78909 69561
" />
<path d="M79106 69926
L79162 69955
L79275 69955
L79331 69926
L79359 69870
L79359 69842
L79331 69786
L79275 69758
L79190 69758
L79134 69730
L79106 69673
L79106 69645
L79134 69589
L79190 69561
L79275 69561
L79331 69589
" />
<path d="M79612 69955
L79612 69364
" />
<path d="M79669 69730
L79837 69955
" />
<path d="M79837 69561
L79612 69786
" />
<path d="M80034 69561
L80175 69955
" />
<path d="M80315 69561
L80175 69955
L80118 70095
L80090 70123
L80034 70151
" />
</g>
<g style="fill:#000000; fill-opacity:0.0; 
stroke:#000000; stroke-width:39.3701; stroke-opacity:1; 
stroke-linecap:round; stroke-linejoin:round;">
</g>
<g style="fill:#000000; fill-opacity:0.0; 
stroke:#000000; stroke-width:59.0551; stroke-opacity:1; 
stroke-linecap:round; stroke-linejoin:round;">
<path d="M77559 75396
L77559 76577
" />
</g>
<g style="fill:#000000; fill-opacity:0.0; 
stroke:#000000; stroke-width:39.3701; stroke-opacity:1; 
stroke-linecap:round; stroke-linejoin:round;">
</g>
<g style="fill:#000000; fill-opacity:0.0; 
stroke:#000000; stroke-width:59.0551; stroke-opacity:1; 
stroke-linecap:round; stroke-linejoin:round;">
<path d="M102756 75396
L102756 77955
" />
</g>
<g style="fill:#008484; fill-opacity:0.0; 
stroke:#008484; stroke-width:59.0551; stroke-opacity:1; 
stroke-linecap:round; stroke-linejoin:round;">
</g>
<g style="fill:#008484; fill-opacity:0.0; 
stroke:#008484; stroke-width:118.11; stroke-opacity:1; 
stroke-linecap:round; stroke-linejoin:round;">
<path d="M14425 29648
L14706 29648
" />
<path d="M14368 29817
L14565 29226
L14762 29817
" />
<path d="M14959 29817
L14959 29226
L15296 29817
L15296 29226
" />
<path d="M15493 29226
L15831 29226
" />
<path d="M15662 29817
L15662 29226
" />
</g>
<g style="fill:#C2C200; fill-opacity:0.0; 
stroke:#C2C200; stroke-width:118.11; stroke-opacity:1; 
stroke-linecap:round; stroke-linejoin:round;">
</g>
<g style="fill:#C2C200; fill-opacity:0.0; 
stroke:#C2C200; stroke-width:39.3701; stroke-opacity:1; 
stroke-linecap:round; stroke-linejoin:round;">
<path d="M39590.6 11878 A1181.1 1181.1 0.0 0 0 38409.4 10696.9 " />
<path d="M15181 10696
L38409 10696
" />
<path d="M15181.1 10696.9 A1181.1 1181.1 0.0 0 0 14000 11878 " />
<path d="M31322.8 31169.3 A393.701 393.701 0.0 0 0 32110.2 31169.3 " />
<path d="M32110.2 25263.8 A393.701 393.701 0.0 0 0 31322.8 25263.8 " />
<path d="M32110 25263
L32110 31169
" />
<path d="M31322 25263
L31322 31169
" />
<path d="M14393.7 25066.9 A393.701 393.701 0.0 0 0 14000 25460.6 " />
<path d="M15574.8 25066.9 A393.701 393.701 0.0 0 0 15968.5 24673.2 " />
<path d="M15968.5 18767.7 A393.701 393.701 0.0 0 0 15574.8 18374 " />
<path d="M14000 17980.3 A393.701 393.701 0.0 0 0 14393.7 18374 " />
<path d="M38409.4 32744.1 A1181.1 1181.1 0.0 0 0 39590.6 31563 " />
<path d="M14000 31563 A1181.1 1181.1 0.0 0 0 15181.1 32744.1 " />
<path d="M15181.1 10500 A1181.1 1181.1 0.0 0 0 14000 11681.1 " />
<path d="M39590.6 11681.1 A1181.1 1181.1 0.0 0 0 38409.4 10500 " />
<path d="M14000 25460
L14000 31562
" />
<path d="M14000 11681
L14000 17980
" />
<path d="M14393 25066
L15574 25066
" />
<path d="M14393 18374
L15574 18374
" />
<path d="M15968 18767
L15968 24673
" />
<path d="M15181 32744
L40000 32744
" />
<path d="M39590 11681
L39590 31562
" />
<path d="M15181 10500
L38409 10500
" />
</g>
<g style="fill:#C2C200; fill-opacity:0.0; 
stroke:#C2C200; stroke-width:59.0551; stroke-opacity:1; 
stroke-linecap:round; stroke-linejoin:round;">
<path d="M20313 16315
L20332 16334
L20351 16390
L20351 16428
L20332 16484
L20295 16521
L20257 16540
L20182 16559
L20126 16559
L20051 16540
L20013 16521
L19976 16484
L19957 16428
L19957 16390
L19976 16334
L19995 16315
" />
<path d="M20351 15940
L20351 16165
" />
<path d="M20351 16053
L19957 16053
L20013 16090
L20051 16128
L20070 16165
" />
<path d="M27434 29890
L27415 29909
L27359 29928
L27321 29928
L27265 29909
L27228 29871
L27209 29834
L27190 29759
L27190 29703
L27209 29628
L27228 29590
L27265 29553
L27321 29534
L27359 29534
L27415 29553
L27434 29571
" />
<path d="M27584 29571
L27603 29553
L27640 29534
L27734 29534
L27771 29553
L27790 29571
L27809 29609
L27809 29646
L27790 29703
L27565 29928
L27809 29928
" />
<path d="M28684 21640
L28665 21659
L28609 21678
L28571 21678
L28515 21659
L28478 21621
L28459 21584
L28440 21509
L28440 21453
L28459 21378
L28478 21340
L28515 21303
L28571 21284
L28609 21284
L28665 21303
L28684 21321
" />
<path d="M28815 21284
L29059 21284
L28928 21434
L28984 21434
L29021 21453
L29040 21471
L29059 21509
L29059 21603
L29040 21640
L29021 21659
L28984 21678
L28871 21678
L28834 21659
L28815 21640
" />
<path d="M20290 24565
L20309 24584
L20328 24640
L20328 24678
L20309 24734
L20271 24771
L20234 24790
L20159 24809
L20103 24809
L20028 24790
L19990 24771
L19953 24734
L19934 24678
L19934 24640
L19953 24584
L19971 24565
" />
<path d="M20065 24228
L20328 24228
" />
<path d="M19915 24321
L20196 24415
L20196 24171
" />
<path d="M20440 28165
L20459 28184
L20478 28240
L20478 28278
L20459 28334
L20421 28371
L20384 28390
L20309 28409
L20253 28409
L20178 28390
L20140 28371
L20103 28334
L20084 28278
L20084 28240
L20103 28184
L20121 28165
" />
<path d="M20084 27809
L20084 27996
L20271 28015
L20253 27996
L20234 27959
L20234 27865
L20253 27828
L20271 27809
L20309 27790
L20403 27790
L20440 27809
L20459 27828
L20478 27865
L20478 27959
L20459 27996
L20440 28015
" />
<path d="M21334 30813
L21315 30832
L21259 30851
L21221 30851
L21165 30832
L21128 30795
L21109 30757
L21090 30682
L21090 30626
L21109 30551
L21128 30513
L21165 30476
L21221 30457
L21259 30457
L21315 30476
L21334 30495
" />
<path d="M21671 30457
L21596 30457
L21559 30476
L21540 30495
L21503 30551
L21484 30626
L21484 30776
L21503 30813
L21521 30832
L21559 30851
L21634 30851
L21671 30832
L21690 30813
L21709 30776
L21709 30682
L21690 30645
L21671 30626
L21634 30607
L21559 30607
L21521 30626
L21503 30645
L21484 30682
" />
<path d="M22209 31178
L22209 30784
L22303 30784
L22359 30803
L22396 30840
L22415 30878
L22434 30953
L22434 31009
L22415 31084
L22396 31121
L22359 31159
L22303 31178
L22209 31178
" />
<path d="M22809 31178
L22584 31178
" />
<path d="M22696 31178
L22696 30784
L22659 30840
L22621 30878
L22584 30896
" />
</g>
<g style="fill:#008484; fill-opacity:0.0; 
stroke:#008484; stroke-width:59.0551; stroke-opacity:1; 
stroke-linecap:round; stroke-linejoin:round;">
<path d="M22396 31678
L22396 31284
" />
<path d="M22621 31678
L22453 31453
" />
<path d="M22621 31284
L22396 31509
" />
</g>
<g style="fill:#C2C200; fill-opacity:0.0; 
stroke:#C2C200; stroke-width:59.0551; stroke-opacity:1; 
stroke-linecap:round; stroke-linejoin:round;">
<path d="M26118 13284
L26118 13565
L26100 13621
L26062 13659
L26006 13678
L25968 13678
" />
<path d="M26268 13284
L26512 13284
L26381 13434
L26437 13434
L26474 13453
L26493 13471
L26512 13509
L26512 13603
L26493 13640
L26474 13659
L26437 13678
L26324 13678
L26287 13659
L26268 13640
" />
<path d="M20328 23065
L20328 23253
L19934 23253
" />
<path d="M20328 22728
L20328 22953
" />
<path d="M20328 22840
L19934 22840
L19990 22878
L20028 22915
L20046 22953
" />
<path d="M20378 26315
L20378 26503
L19984 26503
" />
<path d="M20021 26203
L20003 26184
L19984 26146
L19984 26053
L20003 26015
L20021 25996
L20059 25978
L20096 25978
L20153 25996
L20378 26221
L20378 25978
" />
<path d="M20178 29815
L20178 30003
L19784 30003
" />
<path d="M19784 29721
L19784 29478
L19934 29609
L19934 29553
L19953 29515
L19971 29496
L20009 29478
L20103 29478
L20140 29496
L20159 29515
L20178 29553
L20178 29665
L20159 29703
L20140 29721
" />
<path d="M18834 30928
L18646 30928
L18646 30534
" />
<path d="M19134 30665
L19134 30928
" />
<path d="M19040 30515
L18946 30796
L19190 30796
" />
<path d="M17959 13678
L17959 13284
L18109 13284
L18146 13303
L18165 13321
L18184 13359
L18184 13415
L18165 13453
L18146 13471
L18109 13490
L17959 13490
" />
<path d="M18559 13678
L18334 13678
" />
<path d="M18446 13678
L18446 13284
L18409 13340
L18371 13378
L18334 13396
" />
<path d="M14959 25928
L14959 25534
L15109 25534
L15146 25553
L15165 25571
L15184 25609
L15184 25665
L15165 25703
L15146 25721
L15109 25740
L14959 25740
" />
<path d="M15521 25665
L15521 25928
" />
<path d="M15428 25515
L15334 25796
L15578 25796
" />
<path d="M20959 13678
L20959 13284
L21109 13284
L21146 13303
L21165 13321
L21184 13359
L21184 13415
L21165 13453
L21146 13471
L21109 13490
L20959 13490
" />
<path d="M21540 13284
L21353 13284
L21334 13471
L21353 13453
L21390 13434
L21484 13434
L21521 13453
L21540 13471
L21559 13509
L21559 13603
L21540 13640
L21521 13659
L21484 13678
L21390 13678
L21353 13659
L21334 13640
" />
<path d="M32678 15315
L32490 15446
" />
<path d="M32678 15540
L32284 15540
L32284 15390
L32303 15353
L32321 15334
L32359 15315
L32415 15315
L32453 15334
L32471 15353
L32490 15390
L32490 15540
" />
<path d="M32678 14940
L32678 15165
" />
<path d="M32678 15053
L32284 15053
L32340 15090
L32378 15128
L32396 15165
" />
<path d="M20351 18065
L20163 18196
" />
<path d="M20351 18290
L19957 18290
L19957 18140
L19976 18103
L19995 18084
L20032 18065
L20088 18065
L20126 18084
L20145 18103
L20163 18140
L20163 18290
" />
<path d="M19995 17915
L19976 17896
L19957 17859
L19957 17765
L19976 17728
L19995 17709
L20032 17690
L20070 17690
L20126 17709
L20351 17934
L20351 17690
" />
<path d="M20378 19515
L20190 19646
" />
<path d="M20378 19740
L19984 19740
L19984 19590
L20003 19553
L20021 19534
L20059 19515
L20115 19515
L20153 19534
L20171 19553
L20190 19590
L20190 19740
" />
<path d="M19984 19384
L19984 19140
L20134 19271
L20134 19215
L20153 19178
L20171 19159
L20209 19140
L20303 19140
L20340 19159
L20359 19178
L20378 19215
L20378 19328
L20359 19365
L20340 19384
" />
<path d="M33434 18178
L33303 17990
" />
<path d="M33209 18178
L33209 17784
L33359 17784
L33396 17803
L33415 17821
L33434 17859
L33434 17915
L33415 17953
L33396 17971
L33359 17990
L33209 17990
" />
<path d="M33771 17915
L33771 18178
" />
<path d="M33678 17765
L33584 18046
L33828 18046
" />
<path d="M20328 21065
L20140 21196
" />
<path d="M20328 21290
L19934 21290
L19934 21140
L19953 21103
L19971 21084
L20009 21065
L20065 21065
L20103 21084
L20121 21103
L20140 21140
L20140 21290
" />
<path d="M19934 20709
L19934 20896
L20121 20915
L20103 20896
L20084 20859
L20084 20765
L20103 20728
L20121 20709
L20159 20690
L20253 20690
L20290 20709
L20309 20728
L20328 20765
L20328 20859
L20309 20896
L20290 20915
" />
<path d="M19004 29565
L18817 29696
" />
<path d="M19004 29790
L18611 29790
L18611 29640
L18629 29603
L18648 29584
L18686 29565
L18742 29565
L18779 29584
L18798 29603
L18817 29640
L18817 29790
" />
<path d="M18611 29228
L18611 29303
L18629 29340
L18648 29359
L18704 29396
L18779 29415
L18929 29415
L18967 29396
L18986 29378
L19004 29340
L19004 29265
L18986 29228
L18967 29209
L18929 29190
L18836 29190
L18798 29209
L18779 29228
L18761 29265
L18761 29340
L18779 29378
L18798 29396
L18836 29415
" />
<path d="M18384 29478
L18253 29290
" />
<path d="M18159 29478
L18159 29084
L18309 29084
L18346 29103
L18365 29121
L18384 29159
L18384 29215
L18365 29253
L18346 29271
L18309 29290
L18159 29290
" />
<path d="M18515 29084
L18778 29084
L18609 29478
" />
<path d="M18734 27728
L18603 27540
" />
<path d="M18509 27728
L18509 27334
L18659 27334
L18696 27353
L18715 27371
L18734 27409
L18734 27465
L18715 27503
L18696 27521
L18659 27540
L18509 27540
" />
<path d="M18959 27503
L18921 27484
L18903 27465
L18884 27428
L18884 27409
L18903 27371
L18921 27353
L18959 27334
L19034 27334
L19071 27353
L19090 27371
L19109 27409
L19109 27428
L19090 27465
L19071 27484
L19034 27503
L18959 27503
L18921 27521
L18903 27540
L18884 27578
L18884 27653
L18903 27690
L18921 27709
L18959 27728
L19034 27728
L19071 27709
L19090 27690
L19109 27653
L19109 27578
L19090 27540
L19071 27521
L19034 27503
" />
<path d="M23934 29351
L23803 29163
" />
<path d="M23709 29351
L23709 28957
L23859 28957
L23896 28976
L23915 28995
L23934 29032
L23934 29088
L23915 29126
L23896 29145
L23859 29163
L23709 29163
" />
<path d="M24121 29351
L24196 29351
L24234 29332
L24253 29313
L24290 29257
L24309 29182
L24309 29032
L24290 28995
L24271 28976
L24234 28957
L24159 28957
L24121 28976
L24103 28995
L24084 29032
L24084 29126
L24103 29163
L24121 29182
L24159 29201
L24234 29201
L24271 29182
L24290 29163
L24309 29126
" />
<path d="M27950 30284
L27950 30603
L27968 30640
L27987 30659
L28025 30678
L28100 30678
L28137 30659
L28156 30640
L28175 30603
L28175 30284
" />
<path d="M28568 30678
L28343 30678
" />
<path d="M28456 30678
L28456 30284
L28418 30340
L28381 30378
L28343 30396
" />
<path d="M35355 18743
L34961 18743
L34961 18593
L34980 18555
L34999 18537
L35036 18518
L35092 18518
L35130 18537
L35149 18555
L35167 18593
L35167 18743
" />
<path d="M34999 18368
L34980 18349
L34961 18312
L34961 18218
L34980 18180
L34999 18162
L35036 18143
L35074 18143
L35130 18162
L35355 18387
L35355 18143
" />
<path d="M35355 24774
L34961 24774
L34961 24624
L34980 24587
L34999 24568
L35036 24549
L35092 24549
L35130 24568
L35149 24587
L35167 24624
L35167 24774
" />
<path d="M34961 24418
L34961 24174
L35111 24306
L35111 24249
L35130 24212
L35149 24193
L35186 24174
L35280 24174
L35317 24193
L35336 24212
L35355 24249
L35355 24362
L35336 24399
L35317 24418
" />
<path d="M33212 17851
L33175 17832
L33137 17795
L33081 17738
L33043 17720
L33006 17720
" />
<path d="M33025 17813
L32987 17795
L32950 17757
L32931 17682
L32931 17551
L32950 17476
L32987 17438
L33025 17420
L33100 17420
L33137 17438
L33175 17476
L33193 17551
L33193 17682
L33175 17757
L33137 17795
L33100 17813
L33025 17813
" />
<path d="M33568 17813
L33343 17813
" />
<path d="M33456 17813
L33456 17420
L33418 17476
L33381 17513
L33343 17532
" />
</g>
<g style="fill:#008484; fill-opacity:0.0; 
stroke:#008484; stroke-width:59.0551; stroke-opacity:1; 
stroke-linecap:round; stroke-linejoin:round;">
<path d="M20665 16053
L20665 16446
" />
<path d="M21334 16446
L21334 16053
" />
<path d="M26850 28500
L27150 28500
" />
<path d="M27000 28650
L27000 28350
" />
<path d="M26900 27600
L28400 27600
" />
<path d="M26600 29100
L26600 27900
" />
<path d="M26900 27600
L26600 27900
" />
<path d="M26900 29400
L28400 29400
" />
<path d="M26900 29400
L26600 29100
" />
<path d="M28300 28450
L28300 28550
" />
<path d="M28250 28750
L28250 28250
" />
<path d="M28200 28150
L28200 28850
" />
<path d="M28150 28050
L28150 28950
" />
<path d="M28100 29000
L28100 28000
" />
<path d="M28050 27950
L28050 29050
" />
<path d="M28000 29100
L28000 27900
" />
<path d="M27950 29150
L27950 27850
" />
<path d="M28400 29400
L28400 27600
" />
<circle cx="27500" cy="28500" r="800" /> 
<path d="M27600 23200
L27600 23800
" />
<path d="M27650 23950
L27650 23050
" />
<path d="M27700 22950
L27700 24050
" />
<path d="M27750 24150
L27750 22850
" />
<path d="M27800 22800
L27800 24200
" />
<path d="M27450 22200
L27450 24800
" />
<path d="M27450 24800
L29750 24800
" />
<path d="M29750 24800
L30050 24500
" />
<path d="M30050 24500
L30050 22500
" />
<path d="M30050 22500
L29750 22200
" />
<path d="M29750 22200
L27450 22200
" />
<path d="M29600 23500
L29300 23500
" />
<path d="M29450 23350
L29450 23650
" />
<circle cx="28750" cy="23500" r="1200" /> 
<path d="M21696 24165
L21303 24165
" />
<path d="M21303 24834
L21696 24834
" />
<path d="M21596 27715
L21203 27715
" />
<path d="M21203 28384
L21596 28384
" />
<path d="M21596 31165
L21203 31165
" />
<path d="M21203 31834
L21596 31834
" />
<path d="M23421 32017
L23421 31938
" />
<path d="M23421 30996
L23421 31066
" />
<path d="M24692.4 31118.3 A786.653 786.653 0.0 0 0 23421.7 30993.7 " />
<path d="M24426.4 31067.3 A608.718 608.718 0.0 0 0 23598.4 31066.9 " />
<path d="M23426.7 32027.8 A782.385 782.385 0.0 0 0 24701.2 31891.3 " />
<path d="M23613 31938.3 A582.991 582.991 0.0 0 0 24419.3 31930.7 " />
<path d="M36750 11000
L16750 11000
" />
<path d="M17750 13000
L36750 13000
" />
<path d="M36750 11000
L36750 13000
" />
<path d="M16750 11000
L16750 12000
" />
<path d="M16639 12500
L16639 13110
" />
<path d="M16750 12000
L17750 12000
" />
<path d="M17750 12000
L17750 13000
" />
<path d="M16639 13110
L17250 13110
" />
<path d="M21334 23196
L21334 22803
" />
<path d="M20665 22803
L20665 23196
" />
<path d="M21334 26446
L21334 26053
" />
<path d="M20665 26053
L20665 26446
" />
<path d="M21334 29946
L21334 29553
" />
<path d="M20665 29553
L20665 29946
" />
<path d="M18696 31165
L18303 31165
" />
<path d="M18303 31834
L18696 31834
" />
<path d="M20500 15000
L22500 15000
" />
<path d="M22500 15000
L22500 14000
" />
<path d="M22500 14000
L20500 14000
" />
<path d="M19389 13889
L20000 13889
" />
<path d="M20500 14000
L20500 15000
" />
<path d="M20000 15110
L19389 15110
" />
<path d="M19389 15110
L19389 13889
" />
<path d="M14000 28799
L14000 26200
" />
<path d="M10000 28799
L14000 28799
" />
<path d="M10000 26200
L10000 28799
" />
<path d="M10000 26200
L14000 26200
" />
<path d="M18000 15000
L17000 15000
" />
<path d="M19110 15110
L18500 15110
" />
<path d="M18000 15000
L18000 14000
" />
<path d="M18500 13889
L19110 13889
" />
<path d="M19110 13889
L19110 15110
" />
<path d="M18000 14000
L17000 14000
" />
<path d="M17000 14000
L17000 15000
" />
<path d="M33844 15013
L33844 15486
" />
<path d="M33155 15486
L33155 15013
" />
<path d="M21344 17763
L21344 18236
" />
<path d="M20655 18236
L20655 17763
" />
<path d="M21636 19844
L21163 19844
" />
<path d="M21163 19155
L21636 19155
" />
<path d="M33263 18655
L33736 18655
" />
<path d="M33736 19344
L33263 19344
" />
<path d="M21344 20763
L21344 21236
" />
<path d="M20655 21236
L20655 20763
" />
<path d="M17655 29736
L17655 29263
" />
<path d="M18344 29263
L18344 29736
" />
<path d="M18686 28644
L18213 28644
" />
<path d="M18213 27955
L18686 27955
" />
<path d="M17836 27844
L17363 27844
" />
<path d="M17363 27155
L17836 27155
" />
<path d="M24236 30344
L23763 30344
" />
<path d="M23763 29655
L24236 29655
" />
<path d="M26100 32150
L26100 30800
" />
<path d="M29900 32150
L29900 30800
" />
<path d="M25900 32600
L30100 32600
" />
<path d="M27300 32200
L27300 32700
" />
<path d="M28700 32200
L28700 32700
" />
<path d="M30100 32150
L25900 32150
" />
<path d="M25900 30800
L30100 30800
" />
<path d="M30100 32700
L30100 30800
" />
<path d="M25900 32700
L25900 30800
" />
<path d="M25900 32700
L30100 32700
" />
<path d="M35885 20421
L35688 20421
" />
<circle cx="37460.6" cy="21405.5" r="787.402" /> 
<circle cx="37460.6" cy="19437" r="787.402" /> 
<path d="M35885 18452
L35688 18452
" />
<path d="M35885 16484
L35688 16484
" />
<circle cx="37460.6" cy="17468.5" r="787.402" /> 
<circle cx="37460.6" cy="15500" r="787.402" /> 
<path d="M36476 14515
L36476 22389
" />
<path d="M38405 14515
L38405 22389
" />
<path d="M35885 14515
L35885 22389
" />
<path d="M35688 14515
L35688 22389
" />
<path d="M35688 22389
L39547 22389
" />
<path d="M39547 22389
L39547 14515
" />
<path d="M39547 14515
L35688 14515
" />
<path d="M35885 24484
L35688 24484
" />
<circle cx="37460.6" cy="25468.5" r="787.402" /> 
<circle cx="37460.6" cy="23500" r="787.402" /> 
<path d="M36476 22515
L36476 26452
" />
<path d="M38405 22515
L38405 26452
" />
<path d="M35885 22515
L35885 26452
" />
<path d="M35688 22515
L35688 26452
" />
<path d="M35688 26452
L39547 26452
" />
<path d="M39547 26452
L39547 22515
" />
<path d="M39547 22515
L35688 22515
" />
<path d="M32738 17006
L32757 17006
" />
<path d="M33840 16730
L33840 17006
" />
<path d="M33840 17006
L33742 17006
" />
<path d="M32738 17006
L32659 17006
" />
<path d="M32659 17006
L32659 16730
" />
</g>
<g style="fill:#840000; fill-opacity:0.0; 
stroke:#840000; stroke-width:59.0551; stroke-opacity:1; 
stroke-linecap:round; stroke-linejoin:round;">
</g>
<g style="fill:#840000; fill-opacity:0.0; 
stroke:#840000; stroke-width:0; stroke-opacity:1; 
stroke-linecap:round; stroke-linejoin:round;">
</g>
<g style="fill:#840000; fill-opacity:1.0; 
stroke:#840000; stroke-width:0; stroke-opacity:1; 
stroke-linecap:round; stroke-linejoin:round;">
<polyline style="fill-rule:evenodd;"
points="23893,31893
23106,31893
23106,31106
23893,31106
23893,31893
" /> 
<circle cx="24500" cy="31500" r="393.701" /> 
</g>
<g style="fill:#840000; fill-opacity:1.0; 
stroke:#840000; stroke-width:39.3701; stroke-opacity:1; 
stroke-linecap:round; stroke-linejoin:round;">
</g>
<g style="fill:#840000; fill-opacity:1.0; 
stroke:#840000; stroke-width:0; stroke-opacity:1; 
stroke-linecap:round; stroke-linejoin:round;">
<polyline style="fill-rule:evenodd;"
points="17590,12840
16910,12840
16910,12160
17590,12160
17590,12840
" /> 
</g>
<g style="fill:#840000; fill-opacity:1.0; 
stroke:#840000; stroke-width:680; stroke-opacity:1; 
stroke-linecap:round; stroke-linejoin:round;">
</g>
<g style="fill:#840000; fill-opacity:0.0; 
stroke:#840000; stroke-width:680; stroke-opacity:1; 
stroke-linecap:round; stroke-linejoin:round;">
<path d="M17250 11500
L17250 11500
" />
<path d="M18250 12500
L18250 12500
" />
<path d="M18250 11500
L18250 11500
" />
<path d="M19250 12500
L19250 12500
" />
<path d="M19250 11500
L19250 11500
" />
<path d="M20250 12500
L20250 12500
" />
<path d="M20250 11500
L20250 11500
" />
<path d="M21250 12500
L21250 12500
" />
<path d="M21250 11500
L21250 11500
" />
<path d="M22250 12500
L22250 12500
" />
<path d="M22250 11500
L22250 11500
" />
<path d="M23250 12500
L23250 12500
" />
<path d="M23250 11500
L23250 11500
" />
<path d="M24250 12500
L24250 12500
" />
<path d="M24250 11500
L24250 11500
" />
<path d="M25250 12500
L25250 12500
" />
<path d="M25250 11500
L25250 11500
" />
<path d="M26250 12500
L26250 12500
" />
<path d="M26250 11500
L26250 11500
" />
<path d="M27250 12500
L27250 12500
" />
<path d="M27250 11500
L27250 11500
" />
<path d="M28250 12500
L28250 12500
" />
<path d="M28250 11500
L28250 11500
" />
<path d="M29250 12500
L29250 12500
" />
<path d="M29250 11500
L29250 11500
" />
<path d="M30250 12500
L30250 12500
" />
<path d="M30250 11500
L30250 11500
" />
<path d="M31250 12500
L31250 12500
" />
<path d="M31250 11500
L31250 11500
" />
<path d="M32250 12500
L32250 12500
" />
<path d="M32250 11500
L32250 11500
" />
<path d="M33250 12500
L33250 12500
" />
<path d="M33250 11500
L33250 11500
" />
<path d="M34250 12500
L34250 12500
" />
<path d="M34250 11500
L34250 11500
" />
<path d="M35250 12500
L35250 12500
" />
<path d="M35250 11500
L35250 11500
" />
<path d="M36250 12500
L36250 12500
" />
<path d="M36250 11500
L36250 11500
" />
</g>
<g style="fill:#840000; fill-opacity:0.0; 
stroke:#840000; stroke-width:0; stroke-opacity:1; 
stroke-linecap:round; stroke-linejoin:round;">
</g>
<g style="fill:#840000; fill-opacity:1.0; 
stroke:#840000; stroke-width:0; stroke-opacity:1; 
stroke-linecap:round; stroke-linejoin:round;">
<polyline style="fill-rule:evenodd;"
points="20340,14900
19660,14900
19660,14100
20340,14100
20340,14900
" /> 
</g>
<g style="fill:#840000; fill-opacity:1.0; 
stroke:#840000; stroke-width:680; stroke-opacity:1; 
stroke-linecap:round; stroke-linejoin:round;">
</g>
<g style="fill:#840000; fill-opacity:0.0; 
stroke:#840000; stroke-width:680; stroke-opacity:1; 
stroke-linecap:round; stroke-linejoin:round;">
<path d="M21000 14560
L21000 14440
" />
<path d="M22000 14560
L22000 14440
" />
</g>
<g style="fill:#840000; fill-opacity:0.0; 
stroke:#840000; stroke-width:0; stroke-opacity:1; 
stroke-linecap:round; stroke-linejoin:round;">
</g>
<g style="fill:#840000; fill-opacity:1.0; 
stroke:#840000; stroke-width:0; stroke-opacity:1; 
stroke-linecap:round; stroke-linejoin:round;">
<polyline style="fill-rule:evenodd;"
points="18100,14100
18900,14100
18900,14900
18100,14900
18100,14100
" /> 
</g>
<g style="fill:#840000; fill-opacity:1.0; 
stroke:#840000; stroke-width:800; stroke-opacity:1; 
stroke-linecap:round; stroke-linejoin:round;">
</g>
<g style="fill:#840000; fill-opacity:0.0; 
stroke:#840000; stroke-width:800; stroke-opacity:1; 
stroke-linecap:round; stroke-linejoin:round;">
<path d="M17500 14500
L17500 14500
" />
<path d="M28000 31600
L28000 31400
" />
<path d="M27000 31600
L27000 31400
" />
<path d="M29000 31600
L29000 31400
" />
</g>
<g style="fill:#840000; fill-opacity:1.0; 
stroke:#840000; stroke-width:0; stroke-opacity:1; 
stroke-linecap:round; stroke-linejoin:round;">
<circle cx="37500" cy="21405.5" r="492.126" /> 
</g>
<g style="fill:#840000; fill-opacity:1.0; 
stroke:#840000; stroke-width:39.3701; stroke-opacity:1; 
stroke-linecap:round; stroke-linejoin:round;">
</g>
<g style="fill:#840000; fill-opacity:1.0; 
stroke:#840000; stroke-width:0; stroke-opacity:1; 
stroke-linecap:round; stroke-linejoin:round;">
<circle cx="37500" cy="19437" r="492.126" /> 
</g>
<g style="fill:#840000; fill-opacity:1.0; 
stroke:#840000; stroke-width:39.3701; stroke-opacity:1; 
stroke-linecap:round; stroke-linejoin:round;">
</g>
<g style="fill:#840000; fill-opacity:1.0; 
stroke:#840000; stroke-width:0; stroke-opacity:1; 
stroke-linecap:round; stroke-linejoin:round;">
<polyline style="fill-rule:evenodd;"
points="37007,15007
37992,15007
37992,15992
37007,15992
37007,15007
" /> 
<circle cx="37500" cy="17468.5" r="492.126" /> 
</g>
<g style="fill:#840000; fill-opacity:1.0; 
stroke:#840000; stroke-width:39.3701; stroke-opacity:1; 
stroke-linecap:round; stroke-linejoin:round;">
</g>
<g style="fill:#840000; fill-opacity:1.0; 
stroke:#840000; stroke-width:0; stroke-opacity:1; 
stroke-linecap:round; stroke-linejoin:round;">
<polyline style="fill-rule:evenodd;"
points="37007,23007
37992,23007
37992,23992
37007,23992
37007,23007
" /> 
<circle cx="37500" cy="25468.5" r="492.126" /> 
</g>
<g style="fill:#840000; fill-opacity:1.0; 
stroke:#840000; stroke-width:39.3701; stroke-opacity:1; 
stroke-linecap:round; stroke-linejoin:round;">
</g> 
</svg>
