M48
;DRILL file {KiCad 4.0.2+dfsg1-stable} date Fri 03 Feb 2017 16:59:41 SAST
;FORMAT={-:-/ absolute / inch / decimal}
FMAT,2
INCH,TZ
T1C0.016
T2C0.039
T3C0.039
T4C0.040
T5C0.045
T6C0.051
%
G90
G05
M72
T1
X1.65Y-2.65
X1.65Y-2.85
X2.5Y-3.
T2
X1.685Y-2.675
X1.695Y-1.565
X1.715Y-2.85
X1.715Y-2.92
X1.715Y-2.99
X1.715Y-3.045
X1.715Y-3.11
X1.715Y-3.175
X1.74Y-3.225
X1.755Y-2.675
X1.76Y-1.345
X1.76Y-1.565
X1.81Y-3.225
X1.825Y-1.565
X1.83Y-2.675
X1.87Y-2.735
X1.88Y-2.905
X1.88Y-2.965
X1.88Y-3.025
X1.88Y-3.085
X1.885Y-3.225
X1.895Y-1.565
X1.93Y-2.89
X1.935Y-2.765
X1.94Y-2.83
X1.95Y-3.085
X1.955Y-1.565
X1.965Y-3.225
X2.02Y-1.565
X2.02Y-1.63
X2.02Y-1.7
X2.02Y-1.77
X2.02Y-1.84
X2.02Y-1.905
X2.02Y-1.965
X2.02Y-2.025
X2.02Y-2.105
X2.02Y-2.18
X2.02Y-2.25
X2.02Y-2.32
X2.02Y-2.385
X2.02Y-2.445
X2.025Y-2.505
X2.025Y-2.565
X2.025Y-2.63
X2.025Y-2.695
X2.025Y-2.76
X2.025Y-2.83
X2.025Y-2.89
X2.025Y-2.96
X2.025Y-3.025
X2.025Y-3.085
X2.04Y-3.225
X2.115Y-3.225
X2.17Y-2.525
X2.17Y-2.59
X2.17Y-2.67
X2.17Y-2.735
X2.17Y-2.935
X2.17Y-3.005
X2.17Y-3.075
X2.175Y-2.025
X2.175Y-2.1
X2.175Y-2.175
X2.175Y-2.24
X2.175Y-2.315
X2.175Y-2.375
X2.175Y-2.87
X2.18Y-3.225
X2.19Y-1.55
X2.19Y-1.615
X2.19Y-1.685
X2.19Y-1.755
X2.19Y-1.83
X2.19Y-1.89
X2.225Y-2.525
X2.23Y-2.74
X2.24Y-2.865
X2.245Y-2.375
X2.245Y-2.805
X2.26Y-1.955
X2.265Y-1.89
X2.265Y-2.025
X2.285Y-2.455
X2.285Y-2.525
X2.29Y-2.375
X2.38Y-1.37
X2.775Y-2.475
X3.2Y-1.625
X3.475Y-1.875
T3
X2.35Y-3.15
X2.45Y-3.15
T4
X1.725Y-1.15
X1.725Y-1.25
X1.75Y-1.45
X1.825Y-1.15
X1.825Y-1.25
X1.85Y-1.45
X1.925Y-1.15
X1.925Y-1.25
X2.Y-1.45
X2.025Y-1.15
X2.025Y-1.25
X2.1Y-1.45
X2.125Y-1.15
X2.125Y-1.25
X2.2Y-1.45
X2.225Y-1.15
X2.225Y-1.25
X2.325Y-1.15
X2.325Y-1.25
X2.425Y-1.15
X2.425Y-1.25
X2.525Y-1.15
X2.525Y-1.25
X2.625Y-1.15
X2.625Y-1.25
X2.725Y-1.15
X2.725Y-1.25
X2.825Y-1.15
X2.825Y-1.25
X2.925Y-1.15
X2.925Y-1.25
X3.025Y-1.15
X3.025Y-1.25
X3.125Y-1.15
X3.125Y-1.25
X3.225Y-1.15
X3.225Y-1.25
X3.325Y-1.15
X3.325Y-1.25
X3.425Y-1.15
X3.425Y-1.25
X3.525Y-1.15
X3.525Y-1.25
X3.625Y-1.15
X3.625Y-1.25
T5
X2.7Y-3.15
X2.8Y-3.15
X2.9Y-3.15
T6
X3.75Y-1.55
X3.75Y-1.7469
X3.75Y-1.9437
X3.75Y-2.1406
X3.75Y-2.35
X3.75Y-2.5469
T0
M30
